<?xml version="1.0" encoding="UTF-8" standalone="no"?>
<!DOCTYPE svg PUBLIC "-//W3C//DTD SVG 1.1//EN" "http://www.w3.org/Graphics/SVG/1.1/DTD/svg11.dtd">
<svg width="100%" height="100%" viewBox="0 0 1024 1024" version="1.1" xmlns="http://www.w3.org/2000/svg" xmlns:xlink="http://www.w3.org/1999/xlink" xml:space="preserve" xmlns:serif="http://www.serif.com/" style="fill-rule:evenodd;clip-rule:evenodd;stroke-linecap:round;stroke-linejoin:round;stroke-miterlimit:1.5;">
    <g id="Background">
        <rect x="-34.647" y="-30.271" width="1078.45" height="1072.17" style="fill:rgb(11,14,15);"/>
        <path d="M1043.8,-30.271L1043.8,1041.9L-34.647,1041.9L-34.647,-30.271L1043.8,-30.271ZM1042.84,-29.308L-33.684,-29.308L-33.684,1040.93L1042.84,1040.93L1042.84,-29.308Z" style="fill:rgb(11,14,15);"/>
    </g>
    <g transform="matrix(1,0,0,1,21.6804,16.1954)">
        <g id="Moon" transform="matrix(1.62778,0,0,1.62778,-307.815,-185.919)">
            <g transform="matrix(1.01182,0,0,1.01182,46.5319,8.30777)">
                <circle cx="460.342" cy="357.342" r="227.169" style="fill:rgb(240,227,195);stroke:rgb(240,227,195);stroke-width:0.61px;"/>
            </g>
            <g transform="matrix(0.637761,0.737651,-0.739541,0.639394,319.682,-231.426)">
                <ellipse cx="429.695" cy="234.436" rx="35.387" ry="45.497" style="fill:rgb(224,208,172);stroke:rgb(224,208,172);stroke-width:0.63px;"/>
            </g>
            <g transform="matrix(1,0,0,1,-4.55536,-0.62119)">
                <ellipse cx="511.749" cy="183.128" rx="7.558" ry="7.247" style="fill:rgb(224,208,172);stroke:rgb(224,208,172);stroke-width:0.61px;"/>
            </g>
            <g transform="matrix(0.808162,0,0,0.813347,65.5206,53.0033)">
                <circle cx="344.857" cy="292.146" r="8.179" style="fill:rgb(224,208,172);stroke:rgb(224,208,172);stroke-width:0.76px;"/>
            </g>
            <g transform="matrix(1.09369,0,0,0.893617,-23.856,42.7917)">
                <ellipse cx="323.116" cy="406.134" rx="8.8" ry="9.732" style="fill:rgb(224,208,172);stroke:rgb(224,208,172);stroke-width:0.62px;"/>
            </g>
        </g>
        <g id="Wolf" transform="matrix(1.62778,0,0,1.62778,-307.815,-185.919)">
            <path d="M251.491,519.587L376.457,390.173L308.514,327.893L440.355,283.002L513.554,217.082L585.541,202.523L694.364,101.861L726.777,166.849L727.969,233.735L748.964,227.669L744.401,290.563L691.498,338.812L670.469,422.122L704.036,524.844L653.888,503.815L628.749,652.805L611.897,619.985L555.614,735.749L503.848,622.107L433.075,550.525L397.486,482.583L251.491,519.587Z" style="fill:rgb(11,13,17);"/>
            <path d="M251.491,519.587L376.457,390.173L308.514,327.893L440.355,283.002L513.554,217.082L585.541,202.523L694.364,101.861L726.777,166.849L727.969,233.735L748.964,227.669L744.401,290.563L691.498,338.812L670.469,422.122L704.036,524.844L653.888,503.815L628.749,652.805L611.897,619.985L555.614,735.749L503.848,622.107L433.075,550.525L397.486,482.583L251.491,519.587ZM281.075,502.429L402.351,471.69L440.719,544.939L511.678,616.709L555.89,713.767L603.477,615.891L620.227,615.709L624.205,623.457L644.655,502.257L657.509,495.18L688.776,508.292L660.727,422.456L683.109,333.791L735.332,286.161L738.653,240.394L730.568,242.73L718.607,233.902L717.453,169.133L691.557,117.212L589.971,211.18L517.919,225.752L445.192,291.246L326.486,331.665L389.867,389.764L281.075,502.429Z" style="fill:rgb(11,13,17);"/>
            <path d="M318.126,630.656L467.941,687.918L554.651,734.662L550.444,698.435L388.943,575.265L318.126,630.656Z" style="fill:rgb(11,13,17);"/>
            <path d="M318.126,630.656L388.943,575.265L550.444,698.435L554.651,734.662L467.941,687.918L318.126,630.656ZM319.316,630.477L468.188,687.379L553.932,733.602L549.885,698.753L388.948,576.012L319.316,630.477Z" style="fill:rgb(11,13,17);"/>
            <path d="M231.675,693.689L388.022,599.015L548.439,717.724L579.07,647.99L421.347,449.016L294.36,531.922L231.675,693.689Z" style="fill:rgb(11,13,17);"/>
            <path d="M231.675,693.689L294.36,531.922L421.347,449.016L579.07,647.99L548.439,717.724L388.022,599.015L231.675,693.689ZM256.654,663.913L388.721,583.941L543.277,698.313L564.56,649.86L418.627,465.759L304.588,540.211L256.654,663.913Z" style="fill:rgb(11,13,17);"/>
            <path d="M396.49,482.04L312.982,543.839L269.864,650.216L389.852,566.501L400.136,515.158L396.49,482.04Z" style="fill:rgb(37,41,43);"/>
            <path d="M396.49,482.04L400.136,515.158L389.852,566.501L269.864,650.216L312.982,543.839L396.49,482.04ZM396.014,483.129L313.468,544.216L271.163,648.589L389.318,566.151L399.538,515.131L396.014,483.129Z" style="fill:rgb(37,41,43);"/>
            <path d="M434.805,551.075L396.373,482.015L387.804,570.714L413.748,563.791L434.805,551.075Z" style="fill:rgb(74,80,80);"/>
            <path d="M434.805,551.075L413.748,563.791L387.804,570.714L396.373,482.015L434.805,551.075ZM434.01,550.864L396.779,483.963L388.475,569.923L413.514,563.241L434.01,550.864Z" style="fill:rgb(74,80,80);"/>
            <path d="M464.305,423.762L394.606,394.133L299.689,491.108L403.723,452.509L464.305,423.762Z" style="fill:rgb(33,37,38);"/>
            <path d="M464.305,423.762L403.723,452.509L299.689,491.108L394.606,394.133L464.305,423.762ZM462.862,423.792L394.746,394.835L301.96,489.634L403.492,451.963L462.862,423.792Z" style="fill:rgb(33,37,38);"/>
            <path d="M464.716,423.659C464.716,423.659 362.344,457.56 298.336,491.593L406.59,463.795L441.807,536.729L464.716,423.659Z" style="fill:rgb(48,55,57);"/>
            <path d="M464.716,423.659L441.807,536.729L406.59,463.795L298.336,491.593C362.344,457.56 464.716,423.659 464.716,423.659ZM463.933,424.544C453.634,427.993 363.527,458.487 303.115,489.755L406.912,463.101L441.576,534.889L463.933,424.544Z" style="fill:rgb(48,55,57);"/>
            <path d="M520.937,493.726L464.472,422.63L441.018,535.486L490.646,517.914L520.937,493.726Z" style="fill:rgb(66,75,78);"/>
            <path d="M520.937,493.726L490.646,517.914L441.018,535.486L464.472,422.63L520.937,493.726ZM520.106,493.632L464.794,423.987L441.812,534.577L490.354,517.39L520.106,493.632Z" style="fill:rgb(66,75,78);"/>
            <path d="M441.237,535.475L516.478,612.681L555.38,697.292L565.576,676.614L562.417,574.731L524.143,498.225L519.72,492.391L441.237,535.475Z" style="fill:rgb(89,95,95);"/>
            <path d="M441.237,535.475L519.72,492.391L524.143,498.225L562.417,574.731L565.576,676.614L555.38,697.292L516.478,612.681L441.237,535.475ZM442.204,535.619L516.973,612.341L555.399,695.916L564.98,676.485L561.829,574.88L523.639,498.539L519.557,493.155L442.204,535.619Z" style="fill:rgb(89,95,95);"/>
            <path d="M522.674,495.611L564.015,679.795L587.688,570.265C587.688,570.265 543.162,526.979 522.674,495.611Z" style="fill:rgb(69,80,82);"/>
            <path d="M522.674,495.611C543.162,526.979 587.688,570.265 587.688,570.265L564.015,679.795L522.674,495.611ZM523.95,498.589L564.004,677.043L587.041,570.46C583.643,567.137 544.222,528.371 523.95,498.589Z" style="fill:rgb(69,80,82);"/>
            <path d="M563.564,681.095L614.451,579.966L587.311,559.934L563.564,681.095Z" style="fill:rgb(61,69,70);"/>
            <path d="M563.564,681.095L587.311,559.934L614.451,579.966L563.564,681.095ZM564.974,676.975L613.698,580.146L587.712,560.966L564.974,676.975Z" style="fill:rgb(61,69,70);"/>
            <path d="M450.275,375.8C450.275,375.8 356.647,337.049 351.05,336.717C345.453,336.385 336.299,335.532 336.299,335.532L385.152,377.318L446.101,398.093L450.275,375.8Z" style="fill:rgb(72,78,81);"/>
            <path d="M450.275,375.8L446.101,398.093L385.152,377.318L336.299,335.532C336.299,335.532 345.453,336.385 351.05,336.717C356.647,337.049 450.275,375.8 450.275,375.8ZM449.605,376.164C444.098,373.887 388.788,351.044 363.31,341.464C356.691,338.975 352.119,337.374 351.015,337.308C346.969,337.068 341.066,336.556 338.096,336.29L385.451,376.794L445.645,397.312L449.605,376.164Z" style="fill:rgb(72,78,81);"/>
            <path d="M416.102,329.697L479.027,355.118L448.306,375.128L445.479,398.279L471.465,383.73L475.647,390.437L500.183,340.074L499.372,319.809L477.834,313.44L439.737,315.293L416.102,329.697Z" style="fill:rgb(55,62,64);"/>
            <path d="M416.102,329.697L439.737,315.293L477.834,313.44L499.372,319.809L500.183,340.074L475.647,390.437L471.465,383.73L445.479,398.279L448.306,375.128L479.027,355.118L416.102,329.697ZM417.415,329.589L479.249,354.569L479.35,355.614L448.86,375.474L446.208,397.193L471.669,382.937L475.583,389.216L499.586,339.949L498.798,320.257L477.762,314.037L439.916,315.877L417.415,329.589Z" style="fill:rgb(55,62,64);"/>
            <path d="M334.419,335.1C334.419,335.1 341.84,338.413 366.356,335.763L421.351,331.257L442.29,322.246C442.29,322.246 452.626,317.873 457.529,321.583C457.529,321.583 476.082,324.631 490.659,324.896L445.47,296.935L334.419,335.1Z" style="fill:rgb(149,151,146);"/>
            <path d="M334.419,335.1L445.47,296.935L490.659,324.896C476.082,324.631 457.529,321.583 457.529,321.583C452.626,317.873 442.29,322.246 442.29,322.246L421.351,331.257L366.356,335.763C341.84,338.413 334.419,335.1 334.419,335.1ZM336.347,335.064C339.675,335.855 348.373,337.112 366.3,335.174L421.207,330.675L442.057,321.702L442.059,321.701C442.059,321.701 445.859,320.093 449.98,319.626C452.771,319.309 455.698,319.533 457.766,321.022C459.405,321.287 475.099,323.773 488.483,324.246L445.397,297.586L336.347,335.064Z" style="fill:rgb(149,151,146);"/>
            <path d="M530.799,478.964L586.436,565.405L640.58,414.438L675.184,347.131L678.848,333.629L726.803,288.983L731.944,255.842L729.93,250.353L716.103,257.023L614.665,370.551L607.627,379.618L530.799,478.964Z" style="fill:rgb(63,71,71);"/>
            <path d="M530.799,478.964L607.627,379.618L614.665,370.551L716.103,257.023L729.93,250.353L731.944,255.842L726.803,288.983L678.848,333.629L675.184,347.131L640.58,414.438L586.436,565.405L530.799,478.964ZM531.523,478.995L586.284,564.075L640.036,414.202L674.629,346.916L678.321,333.311L726.25,288.69L731.336,255.903L729.599,251.17L716.466,257.505L615.12,370.93L608.094,379.981L531.523,478.995Z" style="fill:rgb(63,71,71);"/>
            <path d="M584.899,564.432C584.899,564.432 607.248,592.918 610.143,595.234L621.954,617.352L644.535,478.994C644.535,478.994 664.962,486.349 680.479,496.192C680.479,496.192 676.842,486.848 672.674,484.185L614.659,419.106L584.899,564.432Z" style="fill:rgb(139,140,134);"/>
            <path d="M584.899,564.432L614.659,419.106L672.674,484.185C676.842,486.848 680.479,496.192 680.479,496.192C664.962,486.349 644.535,478.994 644.535,478.994L621.954,617.352L610.143,595.234C607.248,592.918 584.899,564.432 584.899,564.432ZM585.534,564.282C587.592,566.904 607.775,592.582 610.513,594.772L610.608,594.848L621.652,615.529L643.951,478.899L644.735,478.437C644.735,478.437 663.867,485.327 679.202,494.701C678.636,493.438 677.77,491.637 676.714,489.865C675.465,487.771 673.958,485.708 672.355,484.683L672.286,484.639L615.002,420.381L585.534,564.282Z" style="fill:rgb(139,140,134);"/>
            <path d="M614.062,420.788L677.765,490.854L657.46,423.966L676.078,346.148L614.062,420.788Z" style="fill:rgb(92,98,98);"/>
            <path d="M614.062,420.788L676.078,346.148L657.46,423.966L677.765,490.854L614.062,420.788ZM614.846,420.77L676.435,488.511L656.848,423.984L674.912,348.477L614.846,420.77Z" style="fill:rgb(92,98,98);"/>
            <path d="M527.773,474.887L540.974,413.312L544.274,338.97L528.121,338.535L469.511,405.83L527.773,474.887Z" style="fill:rgb(53,58,60);"/>
            <path d="M527.773,474.887L469.511,405.83L528.121,338.535L544.274,338.97L540.974,413.312L527.773,474.887ZM527.448,473.583L540.385,413.236L543.656,339.545L528.384,339.135L470.29,405.836L527.448,473.583Z" style="fill:rgb(53,58,60);"/>
            <path d="M469.343,406.115L538.275,343.024L538.815,422.963L593.546,385.788L607.461,380.818L638.437,251.115L629.492,224.611L571.484,262.715L534.078,277.95L522.317,286.895L532.222,246.214L479.228,265.942L447.734,295.672L442.076,298.66L488.892,324.358L469.343,406.115Z" style="fill:rgb(86,91,93);"/>
            <path d="M469.343,406.115L488.892,324.358L442.076,298.66L447.734,295.672L479.228,265.942L532.222,246.214L522.317,286.895L534.078,277.95L571.484,262.715L629.492,224.611L638.437,251.115L607.461,380.818L593.546,385.788L538.815,422.963L538.275,343.024L469.343,406.115ZM470.368,404.375L537.875,342.587L538.867,343.02L539.399,421.851L593.276,385.256L606.959,380.369L637.822,251.143L629.176,225.526L571.761,263.242L534.374,278.468L522.675,287.366L521.742,286.755L531.383,247.158L479.547,266.455L448.082,296.158L443.324,298.67L489.573,324.057L470.368,404.375Z" style="fill:rgb(86,91,93);"/>
            <path d="M726.418,289.92L732.885,284.619L736.702,243.591L646.694,279.212L694.508,207.387L698.112,172.295L669.382,170.599L596.74,214.914L522.529,227.508L477.557,267.376L516.571,258.979C516.571,258.979 555.584,241.677 563.981,236.165L586.202,240.405L564.744,266.273L536.162,309.528L628.354,235.02C628.354,235.02 626.233,266.231 623.859,280.14L606.557,381.152L728.526,252.955L726.418,289.92Z" style="fill:rgb(152,153,147);"/>
            <path d="M726.418,289.92L728.526,252.955L606.557,381.152L623.859,280.14C626.233,266.231 628.354,235.02 628.354,235.02L536.162,309.528L564.744,266.273L586.202,240.405L563.981,236.165C555.584,241.677 516.571,258.979 516.571,258.979L477.557,267.376L522.529,227.508L596.74,214.914L669.382,170.599L698.112,172.295L694.508,207.387L646.694,279.212L736.702,243.591L732.885,284.619L726.418,289.92ZM727.086,288.607L732.319,284.318L736.023,244.496L646.912,279.763L646.202,278.884L693.934,207.18L697.46,172.85L669.532,171.201L596.951,215.478L522.795,228.064L479.637,266.323L516.387,258.413C518.03,257.684 555.459,241.051 563.656,235.67L563.856,235.538L586.313,239.824L586.657,240.783L565.22,266.626L538.764,306.664L627.982,234.559L628.944,235.06C628.944,235.06 626.82,266.312 624.442,280.24L607.469,379.335L728.097,252.547L729.117,252.989L727.086,288.607Z" style="fill:rgb(152,153,147);"/>
            <path d="M706.723,238.2L714.846,238.222L714.974,167.03L692.611,120.646C692.611,120.646 642.639,160.592 593.607,215.256L586.069,239.728L629.862,233.374L677.306,170.862L649.58,168.755L690.18,133.922L707.316,168.92L706.723,238.2Z" style="fill:rgb(92,98,97);"/>
            <path d="M706.723,238.2L707.316,168.92L690.18,133.922L649.58,168.755L677.306,170.862L629.862,233.374L586.069,239.728L593.607,215.256C642.639,160.592 692.611,120.646 692.611,120.646L714.974,167.03L714.846,238.222L706.723,238.2ZM707.32,237.609L714.255,237.628L714.382,167.165L692.402,121.575C686.713,126.18 640.025,164.41 594.134,215.555L586.91,239.008L629.537,232.823L676.177,171.37L649.535,169.345L649.195,168.305L689.795,133.473L690.712,133.662L707.909,168.786L707.32,237.609Z" style="fill:rgb(92,98,97);"/>
            <path d="M387.575,570.533L434.703,550.819L500.55,618.199L529.911,678.332L387.575,570.533Z" style="fill:rgb(95,100,100);"/>
            <path d="M387.575,570.533L434.703,550.819L500.55,618.199L529.911,678.332L387.575,570.533ZM388.752,570.682L528.291,676.362L500.06,618.545L434.56,551.52L388.752,570.682Z" style="fill:rgb(95,100,100);"/>
            <path d="M387.778,597.036L347.283,623.267L481.786,679.127L499.401,690.423L539.8,711.292C479.228,661.137 436.108,632.263 387.778,597.036Z" style="fill:rgb(35,37,39);"/>
            <path d="M387.778,597.036C436.108,632.263 479.228,661.137 539.8,711.292L499.401,690.423L481.786,679.127L347.283,623.267L387.778,597.036ZM387.758,597.754L348.549,623.152L482.062,678.6L499.697,689.91L535.158,708.229C476.958,660.346 434.804,632.034 387.758,597.754Z" style="fill:rgb(35,37,39);"/>
        </g>
    </g>
</svg>
